 <svg version="1.0" xmlns="http://www.w3.org/2000/svg" width="700.000000pt" height="700.000000pt" viewBox="0 0 700.000000 700.000000" preserveAspectRatio="xMidYMid meet">
<metadata>
Created by potrace 1.12, written by Peter Selinger 2001-2015
</metadata>
<g transform="translate(0.000000,700.000000) scale(0.100000,-0.100000)" fill="#000000" stroke="none">
<path d="M0 3500 l0 -3500 3500 0 3500 0 0 3500 0 3500 -3500 0 -3500 0 0
-3500z m3853 1944 c26 -3 50 -11 54 -18 10 -14 102 -214 155 -334 23 -51 39
-95 36 -97 -3 -3 -40 0 -83 6 -74 11 -78 13 -91 45 -8 18 -17 35 -22 38 -5 3
-64 12 -132 21 l-124 16 -29 -31 c-17 -18 -35 -29 -45 -26 -55 15 -124 16
-192 2 -41 -9 -81 -16 -87 -16 -7 0 -24 18 -38 40 -34 54 -57 61 -145 48 l-72
-11 7 -61 6 -62 -81 -15 c-44 -9 -83 -13 -85 -10 -2 4 -10 45 -19 91 -8 47
-24 134 -35 195 -11 60 -17 112 -13 116 4 3 36 11 72 17 36 6 117 20 180 31
142 26 203 26 256 2 74 -34 97 -139 43 -198 -20 -20 -21 -25 -9 -33 8 -5 18
-10 22 -10 4 0 17 -18 28 -40 11 -22 24 -40 28 -40 4 0 75 79 157 176 142 166
152 175 180 170 17 -3 51 -8 78 -12z m502 -140 c36 -14 65 -30 65 -35 0 -13
-139 -362 -148 -370 -8 -8 -145 45 -150 59 -1 5 12 49 31 98 77 200 110 274
123 274 8 0 43 -12 79 -26z m-1673 -64 c31 -31 35 -64 13 -114 -7 -17 -5 -18
18 -12 41 10 76 -3 92 -35 34 -64 13 -108 -79 -173 -55 -39 -365 -216 -378
-216 -3 0 -49 79 -103 176 -80 146 -94 179 -83 189 20 20 285 165 348 192 80
33 134 31 172 -7z m1986 -80 c77 -56 82 -62 82 -97 0 -66 23 -313 29 -313 3 1
39 48 79 105 41 58 78 105 83 105 22 0 130 -85 126 -100 -7 -27 -220 -320
-232 -320 -7 0 -46 24 -86 53 -86 61 -85 57 -95 265 -4 78 -10 145 -14 147 -4
2 -42 -45 -85 -105 -43 -61 -79 -110 -81 -110 -2 0 -33 21 -69 47 -40 29 -64
52 -60 60 8 23 226 323 234 323 4 0 44 -27 89 -60z m-2628 -357 l0 -148 70
-63 c39 -35 70 -68 70 -73 0 -13 -100 -119 -112 -119 -5 0 -40 29 -78 65 -65
61 -72 65 -107 61 -82 -11 -263 -17 -263 -9 0 5 28 36 63 70 l62 62 85 3 85 3
-4 89 -3 88 58 59 c32 33 62 59 66 59 4 0 8 -66 8 -147z m1478 -210 c-2 -42
-8 -68 -15 -71 -10 -3 -13 15 -13 67 0 57 3 71 15 71 13 0 15 -12 13 -67z
m1828 -56 l44 -68 -130 -84 c-71 -47 -130 -87 -130 -90 0 -3 36 -59 80 -126
44 -66 80 -124 80 -128 0 -11 -57 -51 -72 -51 -7 0 -31 28 -53 63 -22 34 -79
122 -128 196 -48 74 -84 138 -80 142 20 20 329 217 337 215 5 -1 28 -32 52
-69z m-2279 -207 c39 -60 45 -80 22 -80 -12 0 -89 118 -89 137 0 28 25 6 67
-57z m919 -6 c-28 -42 -41 -53 -49 -45 -8 8 -6 20 7 44 29 50 58 79 70 67 6
-6 -4 -29 -28 -66z m-2256 -13 c96 -43 176 -85 177 -92 1 -8 -17 -52 -40 -98
l-42 -84 -150 -43 c-82 -24 -158 -43 -168 -44 -38 0 -8 -22 98 -71 61 -28 114
-54 118 -58 10 -10 -52 -151 -67 -151 -25 1 -361 159 -363 171 -1 8 17 52 40
99 l42 84 150 43 c83 24 158 43 168 43 41 0 5 26 -99 73 -60 26 -112 52 -117
56 -10 10 53 151 67 151 6 0 90 -36 186 -79z m1788 -66 c-2 -44 -8 -70 -15
-73 -10 -3 -13 16 -13 71 0 40 3 77 7 81 16 15 24 -15 21 -79z m-908 -50 c59
-59 72 -77 62 -87 -10 -10 -28 3 -88 64 -67 66 -85 98 -56 98 4 0 41 -34 82
-75z m1880 53 c0 -17 -101 -118 -117 -118 -24 0 -14 18 41 74 53 55 76 68 76
44z m-600 -68 c0 -20 -62 -110 -76 -110 -21 0 -17 19 17 72 28 43 59 64 59 38z
m-700 -44 c33 -49 37 -66 16 -66 -15 0 -66 72 -66 95 0 27 18 16 50 -29z
m2445 -121 c57 -173 115 -358 115 -365 0 -10 -79 -32 -90 -25 -5 3 -16 28 -24
55 -29 97 -17 94 -171 43 -75 -25 -142 -42 -150 -39 -16 6 -59 141 -50 156 3
6 11 10 17 10 23 0 243 73 256 85 11 10 9 24 -8 79 -12 37 -19 70 -15 74 9 10
68 31 79 28 5 -1 23 -47 41 -101z m-1305 73 c0 -17 -171 -188 -187 -188 -29 0
-8 31 76 113 85 84 111 101 111 75z m-1508 -105 c47 -46 60 -73 36 -73 -17 0
-108 91 -108 107 0 24 24 13 72 -34z m854 -24 c11 -11 33 -19 48 -19 95 0 191
-64 222 -148 12 -32 35 -63 72 -97 78 -70 112 -146 112 -245 0 -53 -6 -88 -20
-119 -11 -24 -20 -48 -20 -53 0 -6 14 -40 32 -75 56 -115 49 -257 -17 -364
-37 -58 -121 -126 -183 -149 -62 -22 -60 -21 -122 -68 -49 -37 -163 -76 -194
-66 -12 3 -31 16 -43 27 l-23 20 0 667 0 667 23 20 c40 37 73 38 113 2z m-227
-5 c21 -26 21 -34 21 -689 l0 -662 -26 -24 c-19 -18 -35 -24 -68 -22 -51 2
-140 40 -187 80 -18 17 -58 38 -87 47 -110 37 -217 150 -243 258 -19 82 -7
187 30 263 l32 65 -21 58 c-28 72 -29 159 -5 232 14 43 33 70 84 120 44 43 73
82 85 113 32 84 128 147 224 147 16 0 37 9 47 20 28 31 88 27 114 -6z m-1085
-178 c74 -34 96 -56 56 -56 -29 0 -162 69 -155 80 9 15 18 13 99 -24z m2366
21 c0 -16 -67 -50 -81 -42 -16 11 -10 21 24 38 40 20 57 21 57 4z m-243 -113
c4 -11 -138 -84 -163 -84 -38 0 -3 34 66 65 75 34 91 37 97 19z m-1870 -23
c63 -27 96 -61 58 -61 -22 0 -155 68 -155 80 0 16 24 12 97 -19z m-1264 5 c40
-8 126 -25 192 -37 66 -12 121 -23 123 -24 8 -7 -23 -158 -33 -162 -7 -2 -63
6 -126 17 -63 12 -147 27 -187 34 -40 7 -75 16 -79 19 -6 7 13 143 23 159 7
10 2 11 87 -6z m4432 -253 c9 -115 1 -323 -15 -375 -13 -45 -52 -93 -91 -113
-41 -22 -155 -20 -199 3 -78 41 -109 161 -110 424 l0 147 103 4 c56 1 148 4
204 5 l101 2 7 -97z m-4473 -90 l3 -78 152 -3 151 -3 7 -63 c12 -107 22 -100
-155 -106 l-155 -5 -3 -83 -3 -83 -47 3 -47 3 -3 248 -2 247 49 0 50 0 3 -77z
m993 -43 c0 -12 -18 -16 -94 -18 -58 -2 -98 1 -105 8 -21 21 17 30 109 28 72
-2 90 -6 90 -18z m290 0 c0 -12 -17 -16 -84 -18 -83 -3 -110 5 -96 28 4 7 37
10 93 8 69 -2 87 -6 87 -18z m1983 -7 c-3 -16 -15 -18 -88 -18 -73 0 -85 2
-88 18 -3 15 6 17 88 17 82 0 91 -2 88 -17z m320 0 c3 -10 -23 -13 -107 -13
-102 0 -123 5 -104 24 13 12 206 2 211 -11z m-2198 -308 c0 -21 -119 -80 -133
-66 -13 13 -12 14 54 51 61 33 79 37 79 15z m1670 -5 c45 -23 57 -38 37 -46
-19 -7 -100 43 -92 56 8 13 10 13 55 -10z m258 -136 c45 -25 82 -52 82 -60 0
-7 -2 -14 -5 -14 -13 0 -191 94 -197 103 -10 16 2 29 21 22 9 -3 53 -26 99
-51z m-2138 32 c0 -15 -141 -96 -166 -96 -34 0 -8 28 64 67 83 46 102 51 102
29z m375 -217 c8 -12 -33 -59 -52 -59 -20 0 -16 21 9 47 24 25 34 28 43 12z
m1333 -42 c42 -43 53 -67 30 -67 -16 0 -98 81 -98 97 0 24 26 13 68 -30z
m-510 -94 c3 -10 -38 -13 -182 -13 -160 0 -186 2 -186 15 0 13 24 15 182 13
134 -2 182 -6 186 -15z m707 -103 c71 -71 87 -92 77 -102 -10 -10 -30 5 -97
72 -74 73 -104 120 -77 120 4 0 48 -40 97 -90z m-1710 60 c8 -13 -142 -170
-162 -170 -27 0 -11 27 64 102 80 80 87 85 98 68z m1000 -30 c0 -13 -27 -15
-174 -18 -168 -2 -202 3 -186 27 4 8 62 11 183 9 149 -3 177 -5 177 -18z m0
-70 c0 -13 -27 -15 -174 -18 -114 -2 -178 1 -185 8 -23 23 23 30 189 27 143
-2 170 -4 170 -17z m3 -77 c2 -8 -5 -13 -16 -13 -14 0 -28 -14 -44 -42 -51
-93 -145 -114 -213 -48 -18 17 -35 45 -39 61 -4 23 -11 29 -31 29 -16 0 -25 6
-25 15 0 13 24 15 182 13 134 -2 182 -6 186 -15z m-753 -593 c0 -11 -14 -16
-52 -18 -65 -4 -71 -22 -8 -22 33 0 45 -4 45 -15 0 -11 -12 -15 -45 -15 -33 0
-45 -4 -45 -15 0 -12 13 -15 60 -15 44 0 60 -4 60 -14 0 -19 -52 -27 -127 -20
l-63 7 0 67 c0 37 3 70 7 74 4 4 43 5 88 4 63 -2 80 -6 80 -18z m198 6 c32
-25 20 -35 -33 -29 -31 4 -50 2 -50 -4 0 -6 22 -13 49 -17 53 -7 68 -24 50
-57 -26 -50 -151 -50 -167 0 -4 11 5 13 48 7 40 -5 51 -4 48 6 -3 7 -22 14
-44 16 -64 6 -82 34 -44 72 24 24 114 28 143 6z m227 -5 c0 -14 -8 -21 -27
-23 -26 -3 -28 -7 -31 -55 -3 -51 -4 -53 -32 -53 -28 0 -29 2 -32 53 -3 48 -5
52 -30 55 -20 2 -28 9 -28 23 0 17 8 19 90 19 82 0 90 -2 90 -19z m240 -1 c11
-11 20 -26 20 -34 0 -21 -40 -46 -72 -46 -16 0 -28 -4 -28 -10 0 -5 20 -10 45
-10 33 0 45 -4 45 -15 0 -12 -17 -15 -90 -15 -82 0 -90 2 -90 19 0 25 25 49
58 57 52 11 62 15 62 25 0 7 -20 8 -55 4 -58 -8 -65 -3 -38 27 24 26 116 25
143 -2z m209 -6 c37 -47 24 -102 -28 -124 -69 -28 -149 21 -137 85 9 44 40 65
96 65 41 0 52 -4 69 -26z m210 0 c32 -40 6 -74 -58 -74 -17 0 -31 -4 -31 -10
0 -5 23 -10 50 -10 38 0 50 -4 50 -15 0 -12 -17 -15 -90 -15 -88 0 -90 1 -90
24 0 30 21 48 67 55 20 3 38 12 41 19 3 10 -8 11 -47 6 -43 -5 -51 -4 -51 9 0
24 29 36 87 37 44 0 55 -4 72 -26z m198 11 c27 -19 37 -61 22 -96 -13 -33 -71
-56 -113 -45 -63 16 -87 87 -44 133 26 27 101 32 135 8z"></path>
<path d="M3060 5326 l-55 -12 3 -39 c2 -22 6 -43 10 -47 9 -9 171 29 189 44
18 15 16 55 -3 62 -23 9 -81 6 -144 -8z"></path>
<path d="M3764 5277 c-17 -23 -31 -46 -32 -52 -2 -11 117 -35 123 -25 7 11
-39 120 -50 120 -5 -1 -24 -20 -41 -43z"></path>
<path d="M2423 5089 c-40 -22 -73 -46 -73 -52 1 -16 25 -47 36 -47 5 0 44 21
87 46 64 37 78 49 75 67 -5 36 -45 31 -125 -14z"></path>
<path d="M2498 4968 c-43 -23 -78 -47 -78 -54 0 -6 8 -21 18 -33 l17 -21 76
44 c84 50 104 69 95 91 -9 25 -47 17 -128 -27z"></path>
<path d="M3587 3932 c-15 -17 -17 -65 -17 -480 0 -259 4 -463 9 -466 16 -11
80 73 127 166 33 66 66 112 112 160 65 67 94 82 106 53 9 -24 -4 -45 -28 -45
-37 0 -110 -87 -166 -197 -37 -74 -64 -114 -97 -143 -25 -22 -50 -40 -54 -40
-5 0 -9 -72 -9 -159 0 -188 4 -197 78 -187 48 6 123 43 130 64 2 8 -8 12 -32
12 -41 0 -66 30 -45 56 16 19 25 18 59 -7 83 -62 268 38 337 181 23 46 27 68
26 135 -1 129 -51 228 -91 180 -9 -11 -33 -31 -52 -44 -19 -13 -42 -33 -51
-44 -19 -23 -52 -19 -57 6 -5 25 16 47 45 47 32 0 122 86 152 145 51 101 34
230 -41 311 -53 58 -137 99 -203 99 -44 0 -50 3 -53 23 -5 32 19 37 83 14 30
-11 57 -16 60 -11 9 14 -21 64 -58 96 -36 31 -125 60 -153 49 -24 -9 -44 -71
-44 -140 0 -79 39 -163 85 -185 38 -18 46 -30 34 -53 -14 -26 -36 -22 -56 10
-10 15 -32 46 -49 69 -54 71 -67 170 -34 263 13 39 16 58 8 67 -15 18 -42 16
-61 -5z"></path>
<path d="M3361 3937 c-8 -11 -6 -28 9 -72 26 -75 25 -127 -3 -195 -27 -64 -93
-160 -111 -160 -16 0 -36 21 -36 37 0 8 13 20 29 26 59 25 101 107 101 197 0
62 -22 127 -45 136 -27 11 -117 -18 -152 -49 -35 -31 -69 -85 -59 -94 3 -3 25
0 48 7 74 21 93 19 93 -10 0 -23 -3 -25 -51 -25 -68 0 -176 -54 -215 -108 -63
-87 -75 -206 -31 -297 27 -56 107 -139 141 -146 40 -8 56 -19 59 -42 5 -33
-33 -38 -65 -8 -115 104 -119 107 -135 88 -24 -28 -48 -99 -55 -161 -7 -71 14
-144 63 -217 77 -114 237 -178 308 -123 28 22 53 20 62 -6 10 -25 -15 -45 -57
-45 -22 0 -39 -4 -39 -8 0 -16 97 -62 143 -68 70 -10 77 7 77 193 0 140 -1
152 -19 158 -35 11 -100 93 -146 185 -53 105 -123 187 -163 192 -21 2 -27 8
-27 28 0 45 32 36 99 -30 48 -47 77 -88 116 -164 51 -98 115 -180 132 -170 4
3 8 211 8 462 0 398 -2 460 -16 480 -17 25 -46 29 -63 9z"></path>
<path d="M5477 3324 c-23 -23 3 -177 35 -211 26 -27 101 -32 134 -8 28 19 46
87 42 160 l-3 60 -101 3 c-55 1 -103 0 -107 -4z"></path>
<path d="M3417 2264 c-13 -13 -7 -31 19 -58 38 -37 101 -37 138 1 46 45 33 58
-65 61 -47 1 -88 0 -92 -4z"></path>
<path d="M3714 1656 c-11 -28 0 -61 20 -61 27 0 44 30 30 53 -15 22 -43 27
-50 8z"></path>
<path d="M4127 1649 c-8 -29 10 -61 31 -57 12 2 17 13 17 38 0 28 -4 36 -21
38 -15 2 -23 -4 -27 -19z"></path>
</g>
</svg>